<svg xmlns="http://www.w3.org/2000/svg" xmlns:xlink="http://www.w3.org/1999/xlink" viewBox="0 0 512 512"><defs><style>.cls-1{fill:url(#linear-gradient);}.cls-2{fill:url(#linear-gradient-2);}.cls-3{fill:url(#linear-gradient-3);}.cls-4{fill:url(#linear-gradient-4);}.cls-5{fill:url(#linear-gradient-5);}.cls-6{fill:url(#linear-gradient-6);}.cls-7{fill:url(#linear-gradient-7);}.cls-8{fill:url(#linear-gradient-8);}.cls-9{fill:url(#linear-gradient-9);}.cls-10{opacity:0.1;}.cls-11{fill:#7d8487;}.cls-12{fill:#3d474b;}.cls-13{fill:#57666d;}.cls-14{fill:#fff;}.cls-15{opacity:0.5;}.cls-16{fill:url(#linear-gradient-10);}.cls-17{fill:#728086;}.cls-18{fill:url(#White_Black);}</style><linearGradient id="linear-gradient" x1="-31.74" y1="-1787.93" x2="593.74" y2="-1787.93" gradientTransform="matrix(1, 0, 0, -1, 23.57, -1533.8)" gradientUnits="userSpaceOnUse"><stop offset="0" stop-color="#60b7ff"/><stop offset="0.59" stop-color="#0182fc"/><stop offset="1" stop-color="#2740b0"/></linearGradient><linearGradient id="linear-gradient-2" x1="-145.48" y1="-1776.32" x2="523.84" y2="-1776.32" xlink:href="#linear-gradient"/><linearGradient id="linear-gradient-3" x1="-59.49" y1="-1782.81" x2="493.16" y2="-1782.81" xlink:href="#linear-gradient"/><linearGradient id="linear-gradient-4" x1="-16.48" y1="-1753.81" x2="507.6" y2="-1753.81" gradientTransform="matrix(1, 0, 0, -1, 23.57, -1533.8)" gradientUnits="userSpaceOnUse"><stop offset="0" stop-color="#a2e62e"/><stop offset="0.59" stop-color="#81b823"/><stop offset="1" stop-color="#037e73"/></linearGradient><linearGradient id="linear-gradient-5" x1="-16.48" y1="-1920.01" x2="507.6" y2="-1920.01" xlink:href="#linear-gradient-4"/><linearGradient id="linear-gradient-6" x1="-16.48" y1="-1805.31" x2="507.6" y2="-1805.31" xlink:href="#linear-gradient-4"/><linearGradient id="linear-gradient-7" x1="152.52" y1="-1805.31" x2="381.2" y2="-1805.31" xlink:href="#linear-gradient-4"/><linearGradient id="linear-gradient-8" x1="-31.35" y1="-1753.81" x2="441.18" y2="-1753.81" xlink:href="#linear-gradient-4"/><linearGradient id="linear-gradient-9" x1="-62.85" y1="-1920.01" x2="283.84" y2="-1920.01" xlink:href="#linear-gradient-4"/><linearGradient id="linear-gradient-10" x1="358.49" y1="101.92" x2="358.49" y2="413.78" gradientUnits="userSpaceOnUse"><stop offset="0" stop-color="#fff"/><stop offset="1"/></linearGradient><linearGradient id="White_Black" x1="153.51" y1="103.27" x2="153.51" y2="415.11" xlink:href="#linear-gradient-10"/></defs><title>Asset 66</title><g id="Layer_2" data-name="Layer 2"><g id="New_Art_-_Overlays" data-name="New Art - Overlays"><path class="cls-1" d="M512,256c0,141.39-114.61,256-256,256a254.9,254.9,0,0,1-120.82-30.25c-29.62-15.88-45-37.43-66.16-63.2-20-24.31-46.42-52.38-56.42-83A256.74,256.74,0,0,1,35.14,126.47C79.62,50.79,161.88,18.79,256,18.79c28.16,0,55.26-14.24,80.6-5.84C438.5,46.72,512,142.78,512,256Z"/><path class="cls-2" d="M313,36.05A255.56,255.56,0,0,0,230.89,22.6c-59.73,0-109.6,25.55-153.15,59.84-13.49,13.85-30.52,24.14-40.62,40.75a254.93,254.93,0,0,0-24.51,53.28,24.79,24.79,0,0,0,3.72,3.66,24.5,24.5,0,0,0,22.75,4.07l69.64-22.61a23.58,23.58,0,0,1,24,5.76l16.73,16.73a23.56,23.56,0,0,1,5.07,25.8A23.59,23.59,0,0,0,169,241.45L189.08,248a15.46,15.46,0,0,1,4.75,26.91l-8.13,6.36a31.28,31.28,0,0,0-12,24.67v7.18A37.47,37.47,0,0,0,189.91,344l14,9.6a12.41,12.41,0,0,0,4.19,1.85l8.24,1.9a44.55,44.55,0,0,1,32.8,55.74l-13.71,47.66a12.26,12.26,0,0,0,20.11,12.39L308,424.51a78.7,78.7,0,0,0,17.71-24.19l11.73-24.92a78.47,78.47,0,0,0,7.13-26.18l4.56-49.16a61.55,61.55,0,0,0-61.29-67.24h-9.4a27.71,27.71,0,0,1-16.25-50.15l10.39-7.52a27.66,27.66,0,0,1,12.14-5l25.48-3.82A57.47,57.47,0,0,0,352,137.29,70.85,70.85,0,0,0,313,36.05Z"/><path class="cls-3" d="M256,0q-10.14,0-20.09.78C367.91,11,471.82,121.38,471.82,256S367.91,501,235.91,511.22q9.94.76,20.09.78a255.32,255.32,0,0,0,187-81.12S510,323.62,510,256c0-49.34-36.14-134.51-36.14-134.51A255.81,255.81,0,0,0,256,0Z"/><path class="cls-4" d="M378.66,49.16a70.58,70.58,0,0,0-40.58-35.72A256.36,256.36,0,0,0,35.54,125.8a24.5,24.5,0,0,0,28.65,35.8L133.83,139a23.58,23.58,0,0,1,24,5.75l16.73,16.73a23.58,23.58,0,0,1,5.07,25.81,23.58,23.58,0,0,0,14.47,31.56l20.13,6.53a15.48,15.48,0,0,1,4.75,26.92l-8.13,6.36a31.27,31.27,0,0,0-12,24.66v7.19A37.47,37.47,0,0,0,215,321.38l14,9.6a12.19,12.19,0,0,0,4.19,1.84l8.24,1.9a44.55,44.55,0,0,1,32.8,55.74L260.5,438.13a12.26,12.26,0,0,0,20.11,12.38l52.53-48.61a78.58,78.58,0,0,0,17.71-24.19l11.73-24.92a78.41,78.41,0,0,0,7.13-26.17l4.56-49.16A61.55,61.55,0,0,0,313,210.22h-9.4a27.71,27.71,0,0,1-16.25-50.16l10.39-7.52a27.76,27.76,0,0,1,12.14-5l25.48-3.82a57.5,57.5,0,0,0,41.8-29.07,70.89,70.89,0,0,0,1.52-65.53Z"/><path class="cls-5" d="M103.83,380.84a80.7,80.7,0,0,1-38.59-41.22l-8.13-19.49A23.58,23.58,0,0,0,13,336.64,256.74,256.74,0,0,0,135.44,481.88l3.71-37.17a64.17,64.17,0,0,0-35.32-63.87Z"/><path class="cls-6" d="M473.84,121.5l-1.6,3a68.52,68.52,0,0,0,9.29,77.82,68.74,68.74,0,0,1-5.87,97.3l-20,17.65a60.4,60.4,0,0,0-20.47,45.33v5.23a60.43,60.43,0,0,1-7.61,29.36l-8.92,16.05A15.12,15.12,0,0,0,443,430.87,256,256,0,0,0,473.84,121.5Z"/><path class="cls-7" d="M473.84,121.5l-1.6,3a68.52,68.52,0,0,0,9.29,77.82,68.74,68.74,0,0,1-5.87,97.3l-9.06,8a254.62,254.62,0,0,1-45.83,101.8l-2.13,3.84A15.12,15.12,0,0,0,443,430.87,256,256,0,0,0,473.84,121.5Z"/><path class="cls-8" d="M287.33,160.06l10.39-7.52a27.71,27.71,0,0,1,12.14-5l25.48-3.82a57.5,57.5,0,0,0,41.8-29.07A70.86,70.86,0,0,0,338.08,13.44,255.83,255.83,0,0,0,256,0q-10.14,0-20.1.79a255.12,255.12,0,0,1,62,12.65,70.87,70.87,0,0,1,39,101.25,57.5,57.5,0,0,1-41.8,29.07l-25.48,3.82a27.76,27.76,0,0,0-12.14,5l-10.39,7.52a27.71,27.71,0,0,0,16.25,50.16h9.4a61.57,61.57,0,0,1,61.3,67.24l-4.57,49.16a78.41,78.41,0,0,1-7.13,26.17l-11.73,24.92A78.58,78.58,0,0,1,293,401.9l-30,27.79-2.43,8.44a12.26,12.26,0,0,0,20.11,12.38l52.53-48.61a78.58,78.58,0,0,0,17.71-24.19l11.73-24.92a78.71,78.71,0,0,0,7.13-26.17l4.56-49.16A61.53,61.53,0,0,0,313,210.22h-9.4a27.71,27.71,0,0,1-16.25-50.16Z"/><path class="cls-9" d="M103.83,380.84a80.7,80.7,0,0,1-38.59-41.22l-8.13-19.49A23.56,23.56,0,0,0,37.8,305.75a23.28,23.28,0,0,0-15,3.49A23.48,23.48,0,0,1,32,320.13l8.13,19.49a80.7,80.7,0,0,0,38.59,41.22A64.17,64.17,0,0,1,114,444.71l-2.27,22.78a255.93,255.93,0,0,0,23.67,14.39l3.71-37.17a64.17,64.17,0,0,0-35.32-63.87Z"/><path class="cls-10" d="M446.86,426.59l.15-.16c1.26-1.42,2.52-2.86,3.75-4.3l.06-.07A256.18,256.18,0,0,0,486,368.51l.33-.66c.7-1.44,1.37-2.88,2-4.33.19-.39.38-.79.56-1.19.61-1.34,1.2-2.68,1.79-4,.23-.52.46-1,.68-1.56.55-1.27,1.07-2.54,1.6-3.82l.75-1.84c.49-1.22,1-2.45,1.43-3.67.26-.69.53-1.38.78-2.07.44-1.18.87-2.36,1.29-3.55.27-.75.53-1.49.79-2.24.4-1.15.79-2.31,1.17-3.47l.78-2.4L501,330.3l.75-2.55c.32-1.1.64-2.21.95-3.32l.72-2.67c.29-1.09.57-2.17.84-3.27.24-.92.46-1.85.68-2.78s.51-2.14.75-3.22.43-1.93.63-2.9.45-2.1.66-3.16.39-2,.58-3,.39-2.07.57-3.11.35-2.08.52-3.12.33-2,.48-3.06.31-2.16.45-3.24.28-2,.4-3,.27-2.24.39-3.37c.11-1,.22-1.94.32-2.91.12-1.18.21-2.36.31-3.54.08-.93.17-1.86.24-2.8.09-1.26.17-2.52.24-3.79.05-.86.11-1.72.16-2.58.07-1.43.11-2.87.16-4.3,0-.71.06-1.42.08-2.13q.07-3.23.08-6.47h0c0-1.66,0-3.32-.05-5,0-.55,0-1.09,0-1.63,0-1.11-.06-2.23-.11-3.33,0-.65-.05-1.3-.08-1.94l-.15-3c0-.69-.09-1.38-.13-2.06-.06-1-.13-1.92-.2-2.87-.06-.7-.11-1.4-.17-2.1-.08-.94-.17-1.89-.26-2.83-.07-.69-.13-1.39-.2-2.08-.1-1-.22-1.93-.33-2.89-.07-.66-.14-1.32-.23-2-.15-1.25-.32-2.49-.49-3.73-.14-1-.29-2-.44-3s-.26-1.73-.4-2.59-.28-1.68-.42-2.52-.25-1.45-.38-2.17c-.16-.88-.33-1.76-.49-2.64l-.39-2c-.18-.91-.37-1.82-.56-2.73-.13-.61-.26-1.22-.4-1.82-.2-1-.42-1.92-.64-2.87l-.36-1.54c-.25-1-.49-2.08-.75-3.11-.08-.29-.15-.57-.22-.85q-2.06-8.06-4.6-15.9l-.15-.44c-.4-1.25-.82-2.49-1.25-3.73l-.18-.53c-.44-1.26-.88-2.51-1.33-3.75l-.13-.34a255.06,255.06,0,0,0-22.6-46.51l0,0a2.61,2.61,0,0,0-.17-.28c-.18-.3-.37-.59-.56-.89-.62-1-1.25-2-1.88-3l-.83-1.26-1.73-2.62-.85-1.25c-.64-.94-1.28-1.87-1.93-2.8l-.67-1q-1.32-1.87-2.68-3.72l-.3-.41c-.8-1.08-1.6-2.16-2.42-3.23L459,100c-.65-.85-1.31-1.69-2-2.53-.32-.39-.63-.79-.95-1.19q-1-1.26-2-2.52l-.85-1-2.83-3.36-.09-.1q-1.5-1.74-3-3.45l-.81-.91-2.25-2.47c-.34-.37-.68-.74-1-1.1-.72-.78-1.45-1.55-2.18-2.32l-1-1c-.87-.9-1.74-1.78-2.61-2.66l-.58-.58c-1.08-1.08-2.18-2.16-3.28-3.22l-.67-.64-2.63-2.48-1.07-1c-.78-.72-1.57-1.43-2.36-2.14l-1.1-1c-.85-.76-1.71-1.5-2.57-2.24l-.87-.76c-1.17-1-2.34-2-3.52-3l-.26-.21q-1.62-1.34-3.27-2.64l-1.07-.84-2.56-2-1.19-.91-2.62-2L406.66,49l-3.52-2.53-.17-.12c-1.26-.88-2.52-1.75-3.8-2.61l-1-.66c-.93-.63-1.87-1.25-2.82-1.87l-1.25-.81-2.71-1.71-1.22-.76c-1.05-.65-2.11-1.29-3.16-1.92l-.75-.45-4-2.32-.79-.44L378.26,31,377,30.34c-.94-.51-1.89-1-2.84-1.5l-1.34-.69q-1.5-.78-3-1.53l-1.09-.55q-2.07-1-4.17-2l-.26-.12c-1.3-.61-2.61-1.2-3.92-1.79l-1.25-.55-3-1.31-1.42-.59-3-1.25L350.33,18c-1.32-.53-2.64-1-4-1.55l-.32-.12q-2.19-.83-4.39-1.6l-1.15-.4-3.25-1.12L336.6,13l-.29-.09-2.7-.88-1.16-.36c-1.14-.36-2.27-.7-3.41-1l-1.35-.4c-1.16-.34-2.32-.66-3.48-1l-1.12-.31c-1.55-.42-3.1-.83-4.66-1.22h0c-1.52-.38-3.05-.74-4.58-1.1l-1.32-.29c-1.12-.26-2.24-.5-3.37-.74l-1.52-.32-3.41-.67-1.31-.25c-1.58-.29-3.16-.57-4.74-.83l-.12,0c-1.53-.26-3.06-.49-4.6-.72L292,2.52q-1.68-.24-3.36-.45L287,1.86l-3.39-.38-1-.12-.42,0c-1.61-.16-3.21-.31-4.82-.44h-.12c-1.57-.13-3.14-.24-4.72-.34L271,.44c-1.13-.07-2.26-.13-3.4-.18l-1.7-.07-3.43-.1-1.52,0c-1.64,0-3.28,0-4.92,0s-3.2,0-4.8.05c-.41,0-.81,0-1.22,0-1.22,0-2.43.06-3.65.11l-1.22,0c-1.24,0-2.48.11-3.71.18l-1.07.06-3.87.26-.55,0h0A255.93,255.93,0,0,0,37.27,122.93a3.37,3.37,0,0,0-.19.32c-.52.85-1,1.69-1.54,2.55a.21.21,0,0,1,0,.06c-.11.2-.24.4-.36.61A256.74,256.74,0,0,0,12.6,335.56l.34,1,0,.09a256.57,256.57,0,0,0,98.8,130.85h0l0,0c1.82,1.25,3.67,2.47,5.53,3.67l.37.25q2.55,1.63,5.13,3.21l.86.53q2.36,1.43,4.76,2.81l1.17.67,2.11,1.18q1.7,1,3.45,1.92A254.41,254.41,0,0,0,240.7,511.54l.61,0c1.34.07,2.68.14,4,.19l1.14.05,3.62.11,1.22,0c1.56,0,3.12.05,4.69.05q3.39,0,6.75-.09l2.26-.08c1.49-.06,3-.1,4.45-.18l2.67-.17c1.34-.08,2.67-.16,4-.27.95-.07,1.89-.16,2.83-.25,1.27-.11,2.53-.22,3.79-.35l2.91-.33c1.22-.14,2.44-.28,3.66-.44,1-.12,2-.27,2.94-.41l3.58-.52,3-.49c1.17-.2,2.34-.39,3.5-.61l3-.57,3.44-.68,3-.65c1.13-.25,2.27-.5,3.4-.77s2-.47,2.93-.72l3.36-.85,2.92-.79,3.31-.94,2.89-.86c1.1-.33,2.19-.67,3.28-1s1.91-.61,2.86-.93l3.24-1.1,2.83-1,3.21-1.19,2.78-1.06c1.07-.41,2.13-.84,3.19-1.26l2.74-1.12,3.16-1.36,2.69-1.17c1.05-.47,2.1-1,3.14-1.44.88-.41,1.76-.81,2.63-1.23,1-.5,2.09-1,3.13-1.53l2.56-1.28c1.06-.53,2.1-1.09,3.15-1.64.82-.43,1.65-.86,2.46-1.3,1.07-.58,2.14-1.17,3.2-1.77.78-.43,1.56-.86,2.33-1.3,1.11-.64,2.21-1.29,3.31-2,.71-.42,1.43-.83,2.13-1.26,1.22-.74,2.42-1.49,3.62-2.25.58-.36,1.17-.72,1.74-1.09,3.54-2.26,7-4.62,10.45-7.05l1.62-1.19c1.16-.83,2.32-1.67,3.46-2.53l1.94-1.49c1-.78,2-1.55,3-2.34l2.06-1.66c.95-.76,1.9-1.52,2.83-2.3l2.09-1.76c.9-.77,1.81-1.53,2.7-2.31l2.09-1.85,2.6-2.33,2.07-1.93c.84-.79,1.68-1.57,2.51-2.37s1.37-1.33,2.05-2,1.62-1.6,2.42-2.41,1.35-1.37,2-2.06,1.58-1.63,2.36-2.46c.26-.27.53-.54.79-.82a.28.28,0,0,1,0-.07l.07-.08C444.35,429.37,445.61,428,446.86,426.59Z"/><polygon class="cls-11" points="378.77 270.11 401.29 247.58 401.29 326.42 378.77 324.45 378.77 270.11"/><polygon class="cls-12" points="429.45 385.2 404.97 407.54 287.54 397.28 310.06 374.76 429.45 385.2"/><polygon class="cls-13" points="287.54 397.28 259.38 366.66 281.9 344.14 310.06 374.76 287.54 397.28"/><polygon class="cls-11" points="259.38 152.66 259.38 366.66 281.9 344.14 281.9 130.14 259.38 152.66"/><polygon class="cls-12" points="338.22 163.22 457.61 173.67 435.08 196.19 338.22 187.73 338.22 163.22"/><polygon class="cls-14" points="457.61 173.67 457.61 145.51 429.45 114.89 310.06 104.44 281.9 130.14 281.9 158.3 281.9 315.98 281.9 344.14 310.06 374.76 429.45 385.2 457.61 359.51 457.61 331.35 457.61 280.67 429.45 250.05 401.29 247.58 401.29 326.42 338.22 320.91 338.22 163.22 457.61 173.67"/><g class="cls-15"><polygon class="cls-16" points="435.08 196.19 457.61 173.67 457.61 145.51 429.45 114.89 310.06 104.44 281.9 130.14 259.38 152.66 259.38 366.66 287.54 397.28 404.97 407.54 429.45 385.2 457.61 359.51 457.61 331.35 457.61 280.67 429.45 250.05 401.29 247.58 378.77 270.11 378.77 324.45 401.29 326.42 338.22 320.9 338.22 187.73 435.08 196.19"/></g><path d="M310.06,104.45,429.45,114.9l28.16,30.62v28.15L435.08,196.2l-96.86-8.47V320.91l40.55,3.55V270.11l22.52-22.52,28.16,2.46,28.16,30.62v78.84l-28.16,25.7L405,407.55,287.54,397.29l-28.16-30.62v-214l22.52-22.53,28.16-25.69m-2.36-7-2.19,2-28.16,25.69-.11.11-.11.11L254.6,147.89l-2,2V369.3l1.78,1.94,28.16,30.62,1.78,1.93L287,404l117.43,10.26,2.95.26,2.19-2L434,390.2l28.15-25.69,2.21-2V278l-1.79-1.94-28.15-30.62-1.78-1.93-2.61-.23-28.16-2.46-3.14-.28-2.23,2.23L374,265.34l-2,2v49.76l-27-2.36V195.11l89.51,7.82,3.14.28,2.23-2.23,22.53-22.53,2-2V142.88l-1.79-1.94-28.15-30.62-1.78-1.93-2.61-.23L310.65,97.72l-2.95-.26Z"/><polygon class="cls-17" points="230.09 130.14 252.62 152.66 252.62 231.73 230.09 209.21 230.09 130.14"/><polygon class="cls-13" points="202.16 239.58 230.09 209.21 252.62 231.73 224.69 262.11 202.16 239.58"/><polygon class="cls-12" points="173.78 242.06 202.16 239.58 224.69 262.11 196.31 264.59 173.78 242.06"/><polygon class="cls-12" points="133.23 191.27 110.71 168.74 173.78 163.22 173.78 187.72 133.23 191.27"/><polygon class="cls-11" points="110.71 326.42 133.11 324.46 133.23 191.27 110.71 168.74 110.71 326.42"/><polygon class="cls-17" points="230.09 315.98 252.62 338.5 252.62 366.66 230.09 344.14 230.09 315.98"/><polygon class="cls-13" points="201.94 374.76 230.09 344.14 252.62 366.66 224.46 397.28 201.94 374.76"/><polygon class="cls-12" points="82.55 385.2 107.05 407.56 224.46 397.28 201.94 374.76 82.55 385.2"/><polygon class="cls-14" points="82.55 114.89 54.39 145.51 54.39 173.67 54.39 331.35 54.39 359.51 82.55 385.2 201.94 374.76 230.09 344.14 230.09 315.98 110.71 326.42 110.71 168.74 173.78 163.22 173.78 242.06 202.16 239.58 230.09 209.21 230.09 158.3 230.09 130.14 201.94 104.44 82.55 114.89"/><path d="M201.94,104.44l28.16,25.7,22.52,22.52v79.07l-27.93,30.38-28.38,2.48-22.53-22.53V187.72l-40.55,3.55-.12,133.19,97-8.48,22.52,22.52v28.16l-28.16,30.62L107.05,407.56,82.55,385.2,54.39,359.51v-214l28.16-30.62,119.39-10.45m2.36-7-3,.26L82,108.16l-2.61.23-1.78,1.92L49.42,140.94l-1.79,1.94V362.49l2.21,2L78,390.19l24.5,22.36,2.19,2,2.95-.26L225.05,404l2.61-.23,1.78-1.93,28.16-30.62,1.78-1.94V335.71l-2-2L234.87,311.2,232.65,309l-3.14.28-89.64,7.84L140,197.46l27-2.37v49.77l2,2,22.53,22.53,2.23,2.23,3.13-.28,28.39-2.48,2.61-.23,1.77-1.93,27.94-30.37,1.78-1.94v-84.5l-2-2-22.53-22.53-.11-.11-.11-.1-28.16-25.7-2.19-2Z"/><g class="cls-15"><polygon class="cls-18" points="196.31 264.59 224.69 262.11 252.62 231.73 252.62 152.66 230.09 130.14 201.94 104.44 82.55 114.89 54.39 145.51 54.39 173.67 54.39 331.35 54.39 359.51 82.55 385.2 107.05 407.56 224.46 397.28 252.62 366.66 252.62 338.5 230.09 315.98 133.11 324.46 133.23 191.27 173.78 187.72 173.78 242.06 196.31 264.59"/></g></g></g></svg>